<?xml version="1.0" encoding="UTF-8"?>
<svg width="414px" height="370px" viewBox="0 0 414 370" version="1.1" xmlns="http://www.w3.org/2000/svg" xmlns:xlink="http://www.w3.org/1999/xlink">
    <!-- Generator: Sketch 45.1 (43504) - http://www.bohemiancoding.com/sketch -->
    <title>Group</title>
    <desc>Created with Sketch.</desc>
    <defs>
        <rect id="path-1" x="0" y="0" width="81" height="44"></rect>
        <rect id="path-2" x="0" y="0" width="81" height="44"></rect>
        <rect id="path-3" x="0" y="0" width="81" height="44"></rect>
        <rect id="path-4" x="0" y="0" width="81" height="44"></rect>
        <rect id="path-5" x="0" y="0" width="126" height="52"></rect>
        <rect id="path-6" x="0" y="0" width="126" height="52"></rect>
        <rect id="path-7" x="0" y="0" width="126" height="52"></rect>
        <rect id="path-8" x="0" y="0" width="126" height="52"></rect>
        <rect id="path-9" x="0" y="0" width="126" height="52"></rect>
    </defs>
    <g id="Page-1" stroke="none" stroke-width="1" fill="none" fill-rule="evenodd">
        <g id="Group">
            <g id="variable" transform="translate(0.000000, 326.000000)">
                <g id="Group">
                    <g id="Rectangle">
                        <use fill="#D8D8D8" fill-rule="evenodd" xlink:href="#path-1"></use>
                        <rect stroke="#979797" stroke-width="1" x="0.5" y="0.5" width="80" height="43"></rect>
                    </g>
                    <text id="变量" font-family="PingFangSC-Light, PingFang SC" font-size="20" font-weight="300" fill="#000000">
                        <tspan x="21" y="28">变量</tspan>
                    </text>
                </g>
            </g>
            <g id="variable" transform="translate(111.000000, 326.000000)">
                <g id="Group">
                    <g id="Rectangle">
                        <use fill="#D8D8D8" fill-rule="evenodd" xlink:href="#path-2"></use>
                        <rect stroke="#979797" stroke-width="1" x="0.5" y="0.5" width="80" height="43"></rect>
                    </g>
                    <text id="变量" font-family="PingFangSC-Light, PingFang SC" font-size="20" font-weight="300" fill="#000000">
                        <tspan x="21" y="28">变量</tspan>
                    </text>
                </g>
            </g>
            <g id="variable" transform="translate(222.000000, 326.000000)">
                <g id="Group">
                    <g id="Rectangle">
                        <use fill="#D8D8D8" fill-rule="evenodd" xlink:href="#path-3"></use>
                        <rect stroke="#979797" stroke-width="1" x="0.5" y="0.5" width="80" height="43"></rect>
                    </g>
                    <text id="变量" font-family="PingFangSC-Light, PingFang SC" font-size="20" font-weight="300" fill="#000000">
                        <tspan x="21" y="28">变量</tspan>
                    </text>
                </g>
            </g>
            <g id="variable" transform="translate(333.000000, 326.000000)">
                <g id="Group">
                    <g id="Rectangle">
                        <use fill="#D8D8D8" fill-rule="evenodd" xlink:href="#path-4"></use>
                        <rect stroke="#979797" stroke-width="1" x="0.5" y="0.5" width="80" height="43"></rect>
                    </g>
                    <text id="变量" font-family="PingFangSC-Light, PingFang SC" font-size="20" font-weight="300" fill="#000000">
                        <tspan x="21" y="28">变量</tspan>
                    </text>
                </g>
            </g>
            <g id="func" transform="translate(152.000000, 0.000000)">
                <g id="Group">
                    <g id="Rectangle">
                        <use fill="#D8D8D8" fill-rule="evenodd" xlink:href="#path-5"></use>
                        <rect stroke="#979797" stroke-width="1" x="0.5" y="0.5" width="125" height="51"></rect>
                    </g>
                    <text id="程序入口" font-family="PingFangSC-Light, PingFang SC" font-size="20" font-weight="300" fill="#000000">
                        <tspan x="23" y="32">程序入口</tspan>
                    </text>
                </g>
            </g>
            <g id="func" transform="translate(152.000000, 102.000000)">
                <g id="Group">
                    <g id="Rectangle">
                        <use fill="#D8D8D8" fill-rule="evenodd" xlink:href="#path-6"></use>
                        <rect stroke="#979797" stroke-width="1" x="0.5" y="0.5" width="125" height="51"></rect>
                    </g>
                    <text id="程序入口" font-family="PingFangSC-Light, PingFang SC" font-size="20" font-weight="300" fill="#000000">
                        <tspan x="43" y="32">函数</tspan>
                    </text>
                </g>
            </g>
            <g id="func" transform="translate(41.000000, 227.000000)">
                <g id="Group">
                    <g id="Rectangle">
                        <use fill="#D8D8D8" fill-rule="evenodd" xlink:href="#path-7"></use>
                        <rect stroke="#979797" stroke-width="1" x="0.5" y="0.5" width="125" height="51"></rect>
                    </g>
                    <text id="程序入口" font-family="PingFangSC-Light, PingFang SC" font-size="20" font-weight="300" fill="#000000">
                        <tspan x="33" y="32">子程序</tspan>
                    </text>
                </g>
            </g>
            <path d="M79.5,277.5 L44.5,323.5" id="Line" stroke="#979797" stroke-linecap="square"></path>
            <path id="Line-decoration-1" d="M44.5,323.5 L53.4271219,316.721616 L48.6521497,313.088485 L44.5,323.5 Z" stroke="#979797" stroke-linecap="square"></path>
            <path d="M118.5,277.5 L154.5,326.5" id="Line" stroke="#979797" stroke-linecap="square"></path>
            <path id="Line-decoration-1" d="M154.5,326.5 L150.52322,316.020247 L145.687929,319.572706 L154.5,326.5 Z" stroke="#979797" stroke-linecap="square"></path>
            <path d="M165.5,328.5 L129.5,277.5" id="Line" stroke="#979797" stroke-linecap="square"></path>
            <path id="Line-decoration-1" d="M129.5,277.5 L133.277275,288.053303 L138.179082,284.593203 L129.5,277.5 Z" stroke="#979797" stroke-linecap="square"></path>
            <g id="func" transform="translate(41.000000, 227.000000)">
                <g id="Group">
                    <g id="Rectangle">
                        <use fill="#D8D8D8" fill-rule="evenodd" xlink:href="#path-8"></use>
                        <rect stroke="#979797" stroke-width="1" x="0.5" y="0.5" width="125" height="51"></rect>
                    </g>
                    <text id="程序入口" font-family="PingFangSC-Light, PingFang SC" font-size="20" font-weight="300" fill="#000000">
                        <tspan x="33" y="32">子程序</tspan>
                    </text>
                </g>
            </g>
            <path d="M79.5,277.5 L44.5,323.5" id="Line" stroke="#979797" stroke-linecap="square"></path>
            <path id="Line-decoration-1" d="M44.5,323.5 L53.4271219,316.721616 L48.6521497,313.088485 L44.5,323.5 Z" stroke="#979797" stroke-linecap="square"></path>
            <path d="M118.5,277.5 L154.5,326.5" id="Line" stroke="#979797" stroke-linecap="square"></path>
            <path id="Line-decoration-1" d="M154.5,326.5 L150.52322,316.020247 L145.687929,319.572706 L154.5,326.5 Z" stroke="#979797" stroke-linecap="square"></path>
            <path d="M165.5,328.5 L129.5,277.5" id="Line" stroke="#979797" stroke-linecap="square"></path>
            <path id="Line-decoration-1" d="M129.5,277.5 L133.277275,288.053303 L138.179082,284.593203 L129.5,277.5 Z" stroke="#979797" stroke-linecap="square"></path>
            <g id="func" transform="translate(248.000000, 228.000000)">
                <g id="Group">
                    <g id="Rectangle">
                        <use fill="#D8D8D8" fill-rule="evenodd" xlink:href="#path-9"></use>
                        <rect stroke="#979797" stroke-width="1" x="0.5" y="0.5" width="125" height="51"></rect>
                    </g>
                    <text id="程序入口" font-family="PingFangSC-Light, PingFang SC" font-size="20" font-weight="300" fill="#000000">
                        <tspan x="33" y="32">子程序</tspan>
                    </text>
                </g>
            </g>
            <path d="M286.5,278.5 L251.5,324.5" id="Line" stroke="#979797" stroke-linecap="square"></path>
            <path id="Line-decoration-1" d="M251.5,324.5 L260.427122,317.721616 L255.65215,314.088485 L251.5,324.5 Z" stroke="#979797" stroke-linecap="square"></path>
            <path d="M325.5,278.5 L361.5,327.5" id="Line" stroke="#979797" stroke-linecap="square"></path>
            <path id="Line-decoration-1" d="M361.5,327.5 L357.52322,317.020247 L352.687929,320.572706 L361.5,327.5 Z" stroke="#979797" stroke-linecap="square"></path>
            <path d="M372.5,329.5 L336.5,278.5" id="Line" stroke="#979797" stroke-linecap="square"></path>
            <path id="Line-decoration-1" d="M336.5,278.5 L340.277275,289.053303 L345.179082,285.593203 L336.5,278.5 Z" stroke="#979797" stroke-linecap="square"></path>
            <path d="M195.5,53.5 L195.5,104.5" id="Line-2" stroke="#979797" stroke-linecap="square"></path>
            <path id="Line-2-decoration-1" d="M195.5,104.5 L198.5,93.7 L192.5,93.7 L195.5,104.5 Z" stroke="#979797" stroke-linecap="square"></path>
            <path d="M237.5,101.5 L237.5,53.5" id="Line-2" stroke="#979797" stroke-linecap="square"></path>
            <path id="Line-2-decoration-1" d="M237.5,53.5 L234.5,64.3 L240.5,64.3 L237.5,53.5 Z" stroke="#979797" stroke-linecap="square"></path>
            <path d="M154.5,52.5 L97.5,225.5" id="Line-3" stroke="#979797" stroke-linecap="square"></path>
            <path id="Line-3-decoration-1" d="M97.5,225.5 L103.728991,216.181219 L98.0303371,214.303628 L97.5,225.5 Z" stroke="#979797" stroke-linecap="square"></path>
            <path d="M272.5,53.5 L340.5,228.5" id="Line-3" stroke="#979797" stroke-linecap="square"></path>
            <path id="Line-3-decoration-1" d="M340.5,228.5 L339.38467,217.346703 L333.792043,219.519838 L340.5,228.5 Z" stroke="#979797" stroke-linecap="square"></path>
        </g>
    </g>
</svg>